<svg xmlns="http://www.w3.org/2000/svg" width="100" height="120" viewBox="0 0 512 512" xml:space="preserve"><path style="fill:#3d3d3d" d="M381.311 126.474v212.251c0 14.281-10.497 26.069-24.176 28.134-1.463.343-2.926.43-4.388.43H222.403l-95.156 73.56 1.893-73.56H28.478c-1.549 0-3.011-.086-4.474-.43C11.873 365.052 2.323 355.416.43 343.285c-.344-1.464-.43-3.012-.43-4.56V126.474c0-15.744 12.733-28.477 28.478-28.477h324.27c15.744-.001 28.563 12.732 28.563 28.477z"/><path style="fill:#c06a73" d="M512 28.048v269.207c0 15.487-12.562 28.048-28.048 28.048H79.411c-15.486 0-27.962-12.561-27.962-28.048V28.048C51.449 12.562 63.925 0 79.411 0h404.541c2.323 0 4.56.258 6.711.861 10.067 2.409 18.068 10.41 20.477 20.476.602 2.151.86 4.388.86 6.711z"/><path style="fill:#c39596" d="M512 34.5v256.388c0 8.087-2.753 15.573-7.485 21.423-.861 1.118-1.807 2.151-2.839 3.183-.775.774-1.635 1.463-2.495 2.151-.947.86-1.979 1.549-3.098 2.237-.688.516-1.549.946-2.323 1.377 2.065-2.668 3.7-5.679 4.904-8.948a34.298 34.298 0 0 0 2.151-11.959V43.965c0-19.014-15.487-34.414-34.501-34.414H74.679c-5.85 0-11.271 1.376-16.089 3.957C64.871 5.335 74.765 0 85.864 0h391.722c5.936 0 11.528 1.549 16.433 4.216a34.631 34.631 0 0 1 13.852 13.853C510.451 22.972 512 28.565 512 34.5z"/><path style="fill:#c06a73" d="M205.116 295.741h150.141l3.064 118.438z"/><path style="opacity:.06;fill:#040000" d="M504.526 312.304c-6.312 7.935-16.055 13.022-26.962 13.022H356.018l2.298 88.853-114.927-88.853H85.874c-10.908 0-20.651-5.086-26.962-13.022h179.33l113.946 88.087-2.267-88.087h154.605z"/><path style="fill:#daa6a6" d="M143.843 63.866h269.624v29.107H143.843zm0 80.165h297.199v29.107H143.843zm0 79.662h162.004V252.8H143.843z"/><path style="opacity:.06;fill:#040000" d="m211.787 375.495 10.616-8.207h75.262l60.651 46.89v-.003l.005.003-1.224-47.315c.013-.004.026-.001.038-.004 13.679-2.065 24.176-13.853 24.176-28.134v-13.399h96.252c.069 0 .131-.023.2-.023h6.19c15.486 0 28.048-12.561 28.048-28.048V75.282L211.787 375.495z"/></svg>