<svg xmlns="http://www.w3.org/2000/svg" width="100" height="120" fill="#888" viewBox="0 0 249.303 249.304" style="enable-background:new 0 0 249.303 249.304" xml:space="preserve"><path d="M140.447 194.611H0V49.584h69.334v24.997h138.467v27.746a56.892 56.892 0 0 0-31.859-9.699c-31.585 0-57.186 25.61-57.186 57.195 0 18.159 8.488 34.313 21.691 44.788zM83.921 54.753v9.597h131.603v44.242a57.2 57.2 0 0 1 9.451 11.903V54.748H93.265V24.63H16.11v10.067h67.811v20.056zm92.742 139.076c-24.08 0-43.676-19.601-43.676-43.681 0-24.085 19.606-43.684 43.676-43.684 24.08 0 43.681 19.599 43.681 43.684-.001 24.081-19.601 43.681-43.681 43.681zm32.722-43.696c0-18.036-14.681-32.717-32.723-32.717-18.037 0-32.712 14.681-32.712 32.717 0 18.053 14.675 32.723 32.712 32.723 18.043-.001 32.723-14.67 32.723-32.723zm6.358 31.326-9.658 9.669 33.561 33.545 9.658-9.658-33.561-33.556z"/></svg>